<svg width="24" height="24" viewBox="0 0 24 24" fill="none" xmlns="http://www.w3.org/2000/svg">
<path d="M12 18C16 18 17 14 17 14H7C7 14 8 18 12 18Z" fill="black"/>
<path d="M12 22C17.514 22 22 17.514 22 12C22 6.486 17.514 2 12 2C6.486 2 2 6.486 2 12C2 17.514 6.486 22 12 22ZM12 4C16.411 4 20 7.589 20 12C20 16.411 16.411 20 12 20C7.589 20 4 16.411 4 12C4 7.589 7.589 4 12 4Z" fill="black"/>
<path d="M8.53455 12.634L10.5846 10.551C10.724 10.4116 10.8343 10.2458 10.9089 10.0634C10.9836 9.88089 11.0212 9.68538 11.0195 9.48823C11.0179 9.29107 10.977 9.09623 10.8992 8.91506C10.8214 8.73388 10.7083 8.57001 10.5666 8.433C10.2934 8.16163 9.92586 8.00653 9.5409 8.00019C9.15594 7.99385 8.78346 8.13677 8.50155 8.399C8.21521 8.1406 7.83982 8.00331 7.45433 8.01599C7.06885 8.02867 6.70329 8.19034 6.43455 8.467C5.84855 9.067 5.85555 9.997 6.45355 10.584L8.53455 12.634ZM15.5346 12.634L17.5846 10.551C17.724 10.4116 17.8343 10.2458 17.9089 10.0634C17.9836 9.88089 18.0212 9.68538 18.0195 9.48823C18.0179 9.29107 17.977 9.09623 17.8992 8.91506C17.8214 8.73388 17.7083 8.57001 17.5666 8.433C17.2934 8.16163 16.9259 8.00653 16.5409 8.00019C16.1559 7.99385 15.7835 8.13677 15.5016 8.399C15.2153 8.14018 14.8398 8.00252 14.454 8.01502C14.0683 8.02751 13.7025 8.18919 13.4336 8.466C12.8476 9.066 12.8546 9.996 13.4526 10.583L15.5346 12.634Z" fill="black"/>
</svg>
