<svg width="30" height="30" viewBox="0 0 30 30" fill="none" xmlns="http://www.w3.org/2000/svg">
<path fill-rule="evenodd" clip-rule="evenodd" d="M9.06257 7.5C9.06257 5.92528 9.68813 4.41505 10.8016 3.30155C11.9151 2.18806 13.4253 1.5625 15.0001 1.5625C16.5748 1.5625 18.085 2.18806 19.1985 3.30155C20.312 4.41505 20.9376 5.92528 20.9376 7.5C20.9376 9.07472 20.312 10.5849 19.1985 11.6984C18.085 12.8119 16.5748 13.4375 15.0001 13.4375C13.4253 13.4375 11.9151 12.8119 10.8016 11.6984C9.68813 10.5849 9.06257 9.07472 9.06257 7.5ZM15.0001 3.4375C13.9226 3.4375 12.8893 3.86551 12.1274 4.62738C11.3656 5.38925 10.9376 6.42256 10.9376 7.5C10.9376 8.57744 11.3656 9.61075 12.1274 10.3726C12.8893 11.1345 13.9226 11.5625 15.0001 11.5625C16.0775 11.5625 17.1108 11.1345 17.8727 10.3726C18.6346 9.61075 19.0626 8.57744 19.0626 7.5C19.0626 6.42256 18.6346 5.38925 17.8727 4.62738C17.1108 3.86551 16.0775 3.4375 15.0001 3.4375ZM18.4688 15.6412C17.3258 15.4205 16.1642 15.3104 15.0001 15.3125C12.1088 15.3125 9.44382 15.97 7.47007 17.08C5.52507 18.175 4.06257 19.8325 4.06257 21.875V22.0025C4.06132 23.455 4.06007 25.2775 5.65882 26.58C6.44507 27.22 7.54632 27.6763 9.03382 27.9762C10.5238 28.2788 12.4676 28.4375 15.0001 28.4375C18.5851 28.4375 21.0126 28.12 22.6501 27.5113C24.1238 26.9613 24.9963 26.1588 25.4626 25.1463C26.253 24.6919 26.9281 24.0617 27.4355 23.3043C27.9429 22.5469 28.2691 21.6828 28.3887 20.7791C28.5082 19.8753 28.418 18.9561 28.1249 18.0929C27.8319 17.2296 27.3439 16.4455 26.6988 15.8012C26.1478 15.2494 25.4933 14.8117 24.7728 14.5133C24.0523 14.2149 23.2799 14.0617 22.5001 14.0625C20.9438 14.0625 19.5276 14.6625 18.4688 15.6412ZM8.38757 18.715C6.71257 19.6562 5.93757 20.8113 5.93757 21.875C5.93757 23.51 5.98757 24.43 6.84132 25.125C7.30382 25.5025 8.07882 25.8712 9.40382 26.1387C10.7251 26.4062 12.5313 26.5625 14.9988 26.5625C18.2213 26.5625 20.2988 26.2963 21.6376 25.875C20.3735 25.6907 19.2028 25.1027 18.3001 24.1987C17.7486 23.6475 17.3114 22.9929 17.0135 22.2724C16.7155 21.5519 16.5627 20.7797 16.5638 20C16.5638 19.04 16.7901 18.1337 17.1951 17.3312C16.4675 17.2338 15.7341 17.1858 15.0001 17.1875C12.3688 17.1875 10.0326 17.79 8.38757 18.715ZM18.4388 20C18.4388 19.277 18.6317 18.5671 18.9977 17.9435C19.3636 17.32 19.8894 16.8054 20.5206 16.4529C21.1519 16.1004 21.8658 15.9227 22.5886 15.9383C23.3114 15.9538 24.017 16.1619 24.6326 16.5413L19.0413 22.1325C18.6451 21.4919 18.436 20.7532 18.4376 20M20.3663 23.4587L25.9576 17.8675C26.4384 18.646 26.6424 19.5639 26.5365 20.4728C26.4306 21.3816 26.0209 22.2281 25.3739 22.8751C24.7269 23.5221 23.8805 23.9318 22.9716 24.0377C22.0628 24.1436 21.1448 23.9396 20.3663 23.4587Z" fill="#FCCCC8"/>
</svg>
