<svg width="30" height="30" viewBox="0 0 30 30" fill="none" xmlns="http://www.w3.org/2000/svg">
<path d="M22.7727 21.7499C23.8021 23.2889 24.2363 24.2283 23.8718 25.0124C23.8268 25.1084 23.7743 25.201 23.7143 25.2903C23.0675 26.2499 21.3968 26.2499 18.0556 26.2499H11.9424C8.60116 26.2499 6.93167 26.2499 6.2848 25.2903C6.22578 25.2015 6.17315 25.1087 6.1273 25.0124C5.7628 24.2283 6.19705 23.2889 7.22529 21.7499M18.374 12.1875C18.374 13.0826 18.0184 13.941 17.3855 14.574C16.7525 15.2069 15.8941 15.5625 14.999 15.5625C14.1039 15.5625 13.2455 15.2069 12.6125 14.574C11.9796 13.941 11.624 13.0826 11.624 12.1875C11.624 11.2924 11.9796 10.4339 12.6125 9.80101C13.2455 9.16808 14.1039 8.8125 14.999 8.8125C15.8941 8.8125 16.7525 9.16808 17.3855 9.80101C18.0184 10.4339 18.374 11.2924 18.374 12.1875Z" stroke="#FCCCC8" stroke-width="1.5" stroke-linecap="round" stroke-linejoin="round"/>
<path d="M15 3.75006C19.5663 3.75006 23.4374 7.60654 23.4374 12.2854C23.4374 17.0385 19.5033 20.3741 15.8696 22.6421C15.605 22.7943 15.3052 22.8744 15 22.8744C14.6947 22.8744 14.3949 22.7943 14.1303 22.6421C10.5034 20.3516 6.5625 17.0554 6.5625 12.2854C6.5625 7.60654 10.4336 3.75006 15 3.75006Z" stroke="#FCCCC8" stroke-width="1.5" stroke-linecap="round" stroke-linejoin="round"/>
</svg>
