<svg width="24" height="24" viewBox="0 0 24 24" fill="none" xmlns="http://www.w3.org/2000/svg">
<g opacity="0.7">
<path fill-rule="evenodd" clip-rule="evenodd" d="M4.22225 11.4441C4.22225 11.1494 4.33932 10.8668 4.54769 10.6584C4.75607 10.4501 5.03869 10.333 5.33338 10.333H6.4445C6.73919 10.333 7.02181 10.4501 7.23019 10.6584C7.43856 10.8668 7.55563 11.1494 7.55563 11.4441V12.5553C7.55563 12.8499 7.43856 13.1326 7.23019 13.3409C7.02181 13.5493 6.73919 13.6664 6.4445 13.6664H5.33338C5.03869 13.6664 4.75607 13.5493 4.54769 13.3409C4.33932 13.1326 4.22225 12.8499 4.22225 12.5553V11.4441ZM6.4445 11.4441V12.5553H5.33338V11.4441H6.4445ZM9.77788 10.333C9.48319 10.333 9.20057 10.4501 8.9922 10.6584C8.78382 10.8668 8.66675 11.1494 8.66675 11.4441V12.5553C8.66675 12.8499 8.78382 13.1326 8.9922 13.3409C9.20057 13.5493 9.48319 13.6664 9.77788 13.6664H10.889C11.1837 13.6664 11.4663 13.5493 11.6747 13.3409C11.8831 13.1326 12.0001 12.8499 12.0001 12.5553V11.4441C12.0001 11.1494 11.8831 10.8668 11.6747 10.6584C11.4663 10.4501 11.1837 10.333 10.889 10.333H9.77788ZM10.889 11.4441H9.77788V12.5553H10.889V11.4441ZM13.1113 11.4441C13.1113 11.1494 13.2283 10.8668 13.4367 10.6584C13.6451 10.4501 13.9277 10.333 14.2224 10.333H15.3335C15.6282 10.333 15.9108 10.4501 16.1192 10.6584C16.3276 10.8668 16.4446 11.1494 16.4446 11.4441V12.5553C16.4446 12.8499 16.3276 13.1326 16.1192 13.3409C15.9108 13.5493 15.6282 13.6664 15.3335 13.6664H14.2224C13.9277 13.6664 13.6451 13.5493 13.4367 13.3409C13.2283 13.1326 13.1113 12.8499 13.1113 12.5553V11.4441ZM14.2224 11.4441H15.3335V12.5553H14.2224V11.4441ZM5.33338 14.7775C5.03869 14.7775 4.75607 14.8946 4.54769 15.103C4.33932 15.3113 4.22225 15.5939 4.22225 15.8886V16.9998C4.22225 17.2944 4.33932 17.5771 4.54769 17.7854C4.75607 17.9938 5.03869 18.1109 5.33338 18.1109H6.4445C6.73919 18.1109 7.02181 17.9938 7.23019 17.7854C7.43856 17.5771 7.55563 17.2944 7.55563 16.9998V15.8886C7.55563 15.5939 7.43856 15.3113 7.23019 15.103C7.02181 14.8946 6.73919 14.7775 6.4445 14.7775H5.33338ZM5.33338 15.8886V16.9998H6.4445V15.8886H5.33338ZM8.66675 15.8886C8.66675 15.5939 8.78382 15.3113 8.9922 15.103C9.20057 14.8946 9.48319 14.7775 9.77788 14.7775H10.889C11.1837 14.7775 11.4663 14.8946 11.6747 15.103C11.8831 15.3113 12.0001 15.5939 12.0001 15.8886V16.9998C12.0001 17.2944 11.8831 17.5771 11.6747 17.7854C11.4663 17.9938 11.1837 18.1109 10.889 18.1109H9.77788C9.48319 18.1109 9.20057 17.9938 8.9922 17.7854C8.78382 17.5771 8.66675 17.2944 8.66675 16.9998V15.8886ZM9.77788 15.8886H10.889V16.9998H9.77788V15.8886Z" fill="#F76D61"/>
<path d="M18.1113 16.167C18.2587 16.167 18.4 16.2255 18.5042 16.3297C18.6083 16.4339 18.6669 16.5752 18.6669 16.7226V17.8815L19.0597 18.2742C19.1609 18.379 19.2169 18.5194 19.2156 18.665C19.2143 18.8107 19.1559 18.95 19.0529 19.053C18.9499 19.156 18.8105 19.2145 18.6649 19.2157C18.5192 19.217 18.3789 19.161 18.2741 19.0598L17.5558 18.3415V16.7226C17.5558 16.5752 17.6143 16.4339 17.7185 16.3297C17.8227 16.2255 17.964 16.167 18.1113 16.167Z" fill="#F76D61"/>
<path fill-rule="evenodd" clip-rule="evenodd" d="M5.33338 2.55556C5.33338 2.40822 5.39191 2.26691 5.4961 2.16272C5.60029 2.05853 5.74159 2 5.88894 2C6.03628 2 6.17759 2.05853 6.28178 2.16272C6.38597 2.26691 6.4445 2.40822 6.4445 2.55556V5.33338C6.4445 5.48072 6.38597 5.62203 6.28178 5.72622C6.17759 5.83041 6.03628 5.88894 5.88894 5.88894C5.74159 5.88894 5.60029 5.83041 5.4961 5.72622C5.39191 5.62203 5.33338 5.48072 5.33338 5.33338V4.77781H3.66669C3.51934 4.77781 3.37803 4.83635 3.27385 4.94053C3.16966 5.04472 3.11113 5.18603 3.11113 5.33338V7.55563H17.5558V5.33338C17.5558 5.18603 17.4972 5.04472 17.393 4.94053C17.2888 4.83635 17.1475 4.77781 17.0002 4.77781H15.3335V3.66669H17.0002C17.4422 3.66669 17.8662 3.84229 18.1787 4.15485C18.4913 4.46741 18.6669 4.89134 18.6669 5.33338V14.2613C19.64 14.4019 20.5237 14.9059 21.1402 15.6717C21.7568 16.4376 22.0604 17.4086 21.99 18.3893C21.9196 19.3699 21.4804 20.2876 20.7608 20.9575C20.0412 21.6275 19.0945 22.0001 18.1113 22.0003C17.4843 22.0008 16.8664 21.8494 16.3106 21.5592C15.7548 21.2689 15.2775 20.8484 14.9196 20.3336H3.66669C3.22466 20.3336 2.80073 20.158 2.48816 19.8454C2.1756 19.5328 2 19.1089 2 18.6669V5.33338C2 4.89134 2.1756 4.46741 2.48816 4.15485C2.80073 3.84229 3.22466 3.66669 3.66669 3.66669H5.33338V2.55556ZM14.2224 18.1113C14.2221 17.176 14.559 16.2719 15.1712 15.5648C15.7835 14.8577 16.63 14.3949 17.5558 14.2613V8.66675H3.11113V18.6669C3.11113 18.8142 3.16966 18.9555 3.27385 19.0597C3.37803 19.1639 3.51934 19.2224 3.66669 19.2224H14.3835C14.2763 18.8618 14.2221 18.4875 14.2224 18.1113ZM18.1113 20.8891C18.848 20.8891 19.5546 20.5965 20.0755 20.0755C20.5965 19.5546 20.8891 18.848 20.8891 18.1113C20.8891 17.3746 20.5965 16.668 20.0755 16.1471C19.5546 15.6262 18.848 15.3335 18.1113 15.3335C17.3746 15.3335 16.668 15.6262 16.1471 16.1471C15.6262 16.668 15.3335 17.3746 15.3335 18.1113C15.3335 18.848 15.6262 19.5546 16.1471 20.0755C16.668 20.5965 17.3746 20.8891 18.1113 20.8891Z" fill="#F76D61"/>
<path d="M13.6668 5.88894C13.5195 5.88894 13.3782 5.83041 13.274 5.72622C13.1698 5.62203 13.1113 5.48072 13.1113 5.33338V4.77781H7.55563V3.66669H13.1113V2.55556C13.1113 2.40822 13.1698 2.26691 13.274 2.16272C13.3782 2.05853 13.5195 2 13.6668 2C13.8142 2 13.9555 2.05853 14.0597 2.16272C14.1638 2.26691 14.2224 2.40822 14.2224 2.55556V5.33338C14.2224 5.48072 14.1638 5.62203 14.0597 5.72622C13.9555 5.83041 13.8142 5.88894 13.6668 5.88894Z" fill="#F76D61"/>
</g>
</svg>
