<svg width="30" height="30" viewBox="0 0 30 30" fill="none" xmlns="http://www.w3.org/2000/svg">
<path d="M21.2444 11.2662H21.2544M21.2544 8.76125V5.63125M9.37688 27.5H5.89688C5.49313 27.5 5.08688 27.4425 4.71563 27.2837C3.50813 26.765 2.89438 26.0788 2.60938 25.65C2.53203 25.5312 2.49403 25.3911 2.50076 25.2496C2.50749 25.108 2.55861 24.9721 2.64688 24.8612C4.04688 23.0012 7.29188 21.8788 9.37688 21.8788M9.38313 27.5H12.8619C13.2669 27.5 13.6719 27.4425 14.0431 27.2837C15.2519 26.765 15.8644 26.0788 16.1506 25.65C16.228 25.5312 16.266 25.3911 16.2593 25.2496C16.2525 25.108 16.2014 24.9721 16.1131 24.8612C14.7131 23.0012 11.4681 21.8788 9.38313 21.8788M27.4994 8.49C27.4994 11.7975 24.6994 14.48 21.2444 14.48C20.8377 14.48 20.4344 14.4425 20.0344 14.3675C19.7469 14.3138 19.6044 14.2875 19.5031 14.3025C19.4031 14.3175 19.2606 14.3925 18.9781 14.545C18.169 14.9764 17.2376 15.1213 16.3356 14.9563C16.6781 14.5338 16.9106 14.0275 17.0144 13.485C17.0769 13.1538 16.9219 12.8313 16.6894 12.595C15.6038 11.5042 14.9928 10.0289 14.9894 8.49C14.9894 5.1825 17.7894 2.5 21.2444 2.5C24.6994 2.5 27.4994 5.1825 27.4994 8.49ZM12.8556 15.3612C12.8543 16.2811 12.4878 17.1628 11.8366 17.8126C11.1855 18.4623 10.303 18.8269 9.38313 18.8262C8.92744 18.8269 8.47609 18.7378 8.05484 18.564C7.63359 18.3902 7.25069 18.1352 6.928 17.8134C6.60532 17.4917 6.34917 17.1095 6.17418 16.6888C5.99919 16.268 5.90879 15.8169 5.90813 15.3612C5.90862 14.9055 5.99891 14.4542 6.17382 14.0333C6.34874 13.6124 6.60486 13.2301 6.92756 12.9082C7.25026 12.5864 7.63322 12.3312 8.05455 12.1573C8.47588 11.9835 8.92734 11.8943 9.38313 11.895C10.3032 11.8943 11.1859 12.2591 11.8371 12.9091C12.4883 13.5591 12.8546 14.4412 12.8556 15.3612Z" stroke="#FCCCC8" stroke-width="1.875" stroke-linecap="round" stroke-linejoin="round"/>
</svg>
