<svg width="24" height="24" viewBox="0 0 24 24" fill="none" xmlns="http://www.w3.org/2000/svg">
<g opacity="0.7">
<path d="M16.375 3C17.1684 2.99987 17.9321 3.31014 18.5113 3.86785C19.0905 4.42557 19.4417 5.18898 19.4937 6.00323L19.5 6.21407V9.49243C20.1699 9.63312 20.7764 9.99589 21.2266 10.5251C21.6768 11.0543 21.9459 11.7208 21.9925 12.4224L22 12.6422V20.356C22.0003 20.5166 21.9421 20.6716 21.8369 20.7903C21.7316 20.909 21.587 20.9829 21.4315 20.9974C21.2759 21.0119 21.1207 20.966 20.9965 20.8687C20.8722 20.7714 20.7878 20.6298 20.76 20.4717L20.75 20.356V17.1419H3.25V20.356C3.25029 20.5166 3.19209 20.6716 3.08686 20.7903C2.98164 20.909 2.83702 20.9829 2.68147 20.9974C2.52593 21.0119 2.37074 20.966 2.24646 20.8687C2.12218 20.7714 2.03783 20.6298 2.01 20.4717L2 20.356V12.6422C1.99985 11.9013 2.24861 11.183 2.70418 10.6091C3.15975 10.0351 3.79415 9.64062 4.5 9.49243V6.21407C4.49988 5.39806 4.80154 4.61255 5.3438 4.01687C5.88606 3.4212 6.62831 3.05996 7.42 3.00643L7.625 3H16.375ZM18.875 10.7138H5.125C4.65909 10.7138 4.20987 10.8922 3.86487 11.2142C3.51986 11.5362 3.30379 11.9789 3.25875 12.4558L3.25 12.6422V15.8563H20.75V12.6422C20.75 12.163 20.5766 11.701 20.2634 11.3462C19.9503 10.9913 19.52 10.7691 19.0563 10.7228L18.875 10.7138ZM16.375 4.28563H7.625C7.1589 4.28565 6.70951 4.46423 6.36448 4.78654C6.01944 5.10884 5.8035 5.55177 5.75875 6.02894L5.75 6.21407V9.42815H7V8.78533C7 8.61485 7.06585 8.45135 7.18306 8.33079C7.30027 8.21024 7.45924 8.14252 7.625 8.14252H10.75C10.9158 8.14252 11.0747 8.21024 11.1919 8.33079C11.3092 8.45135 11.375 8.61485 11.375 8.78533V9.42815H12.625V8.78533C12.625 8.61485 12.6908 8.45135 12.8081 8.33079C12.9253 8.21024 13.0842 8.14252 13.25 8.14252H16.375C16.5408 8.14252 16.6997 8.21024 16.8169 8.33079C16.9342 8.45135 17 8.61485 17 8.78533V9.42815H18.25V6.21407C18.25 5.73489 18.0766 5.27286 17.7634 4.91802C17.4503 4.56318 17.02 4.34095 16.5563 4.29463L16.375 4.28563Z" fill="#F76D61"/>
</g>
</svg>
