<svg width="24" height="24" viewBox="0 0 24 24" fill="none" xmlns="http://www.w3.org/2000/svg">
<g opacity="0.7">
<path d="M2 11H17M2 8H22M2 17H17M2 20H22M17 12H22M17 15H22M22 4V22M17 4V22M2 4V22M6.5 5C5.896 5 5.324 5.129 4.818 5.358C4.486 5.508 4.32 5.582 4.16 5.83C4 6.078 4 6.324 4 6.818V8H9V6.818C9 6.324 9 6.078 8.84 5.83C8.68 5.582 8.514 5.507 8.182 5.358C7.65295 5.12111 7.07967 4.99909 6.5 5ZM6.5 14C5.83063 13.9976 5.17106 14.1608 4.58 14.475C4.474 14.532 4.42 14.56 4.33 14.641C4.18949 14.7815 4.08606 14.9547 4.029 15.145C4 15.263 4 15.36 4 15.553C4 15.969 4 16.178 4.061 16.344C4.11099 16.4805 4.19011 16.6044 4.29287 16.7071C4.39563 16.8099 4.51955 16.889 4.656 16.939C4.822 17 5.031 17 5.448 17H7.552C7.969 17 8.178 17 8.344 16.939C8.48045 16.889 8.60437 16.8099 8.70713 16.7071C8.80989 16.6044 8.88901 16.4805 8.939 16.344C9 16.178 9 15.97 9 15.552C9 15.36 9 15.262 8.971 15.145C8.91365 14.9546 8.80988 14.7814 8.669 14.641C8.5948 14.5735 8.51086 14.5175 8.42 14.475C7.82894 14.1608 7.16937 13.9976 6.5 14Z" stroke="#F76D61" stroke-linecap="round" stroke-linejoin="round"/>
</g>
</svg>
