<svg width="23" height="23" viewBox="0 0 23 23" fill="none" xmlns="http://www.w3.org/2000/svg">
<path d="M18.5833 5.325L17.9978 14.8487C17.8486 17.2817 17.7739 18.4986 17.1667 19.3736C16.8669 19.806 16.4809 20.1709 16.0333 20.4452C15.1295 21 13.9178 21 11.4943 21C9.06711 21 7.8535 21 6.94778 20.4443C6.50001 20.1694 6.11403 19.8038 5.81444 19.3707C5.20811 18.4948 5.13444 17.276 4.989 14.8393L4.41667 5.325M8.66667 11.2482H14.3333M10.0833 14.9713H12.9167M3 5.325H20M15.3297 5.325L14.6856 3.9874C14.2568 3.0982 14.0434 2.65455 13.6741 2.37715C13.5921 2.3157 13.5052 2.26105 13.4144 2.21375C13.0054 2 12.5143 2 11.5321 2C10.5263 2 10.0229 2 9.60639 2.2223C9.51432 2.2719 9.4265 2.3291 9.34383 2.3933C8.96983 2.68115 8.76111 3.1419 8.34367 4.06245L7.77228 5.325" stroke="#F76D61" stroke-width="1.4375" stroke-linecap="round" stroke-linejoin="round"/>
</svg>
