<svg width="25" height="25" viewBox="0 0 25 25" fill="none" xmlns="http://www.w3.org/2000/svg">
<path d="M2.6593 24.8337C1.94911 24.8337 1.35659 24.5962 0.88176 24.1214C0.406927 23.6466 0.168997 23.0535 0.167969 22.3423V2.65833C0.167969 1.94813 0.405899 1.35562 0.88176 0.880783C1.35762 0.40595 1.95014 0.16802 2.6593 0.166992H22.3448C23.054 0.166992 23.6465 0.404922 24.1224 0.880783C24.5982 1.35664 24.8357 1.94916 24.8346 2.65833V22.3439C24.8346 23.053 24.5972 23.6455 24.1224 24.1214C23.6476 24.5973 23.0545 24.8347 22.3433 24.8337H2.6593ZM5.5638 19.4378H19.6762L15.3179 13.6257L11.2865 18.7256L8.58855 15.4649L5.5638 19.4378Z" fill="#989898"/>
</svg>
