<svg width="20" height="20" viewBox="0 0 20 20" fill="none" xmlns="http://www.w3.org/2000/svg">
<path d="M3.33594 17.5H16.6693M4.72427 10.9892C4.36895 11.3453 4.16936 11.8278 4.16927 12.3308V15H6.8551C7.35844 15 7.84094 14.8 8.19677 14.4433L16.1134 6.52251C16.4686 6.16634 16.6681 5.68385 16.6681 5.18084C16.6681 4.67783 16.4686 4.19534 16.1134 3.83917L15.3318 3.05584C15.1555 2.87947 14.9462 2.73957 14.7158 2.64415C14.4854 2.54872 14.2385 2.49965 13.9891 2.49973C13.7397 2.4998 13.4928 2.54903 13.2625 2.6446C13.0322 2.74016 12.8229 2.88019 12.6468 3.05667L4.72427 10.9892Z" stroke="#F76D61" stroke-linecap="round" stroke-linejoin="round"/>
</svg>
