<svg width="23" height="23" viewBox="0 0 23 23" fill="none" xmlns="http://www.w3.org/2000/svg">
<path d="M8.62533 4.27389C9.55495 3.97854 10.5249 3.82981 11.5003 3.83306C15.5081 3.83306 18.2355 6.22889 19.8618 8.34106C20.6764 9.40098 21.0837 9.92902 21.0837 11.4997C21.0837 13.0714 20.6764 13.5994 19.8618 14.6584C18.2355 16.7706 15.5081 19.1664 11.5003 19.1664C7.49258 19.1664 4.76516 16.7706 3.13887 14.6584C2.32428 13.6004 1.91699 13.0704 1.91699 11.4997C1.91699 9.92806 2.32428 9.40002 3.13887 8.34106C3.63577 7.6921 4.18895 7.08824 4.79199 6.53652" stroke="black" stroke-width="1.4375" stroke-linecap="round"/>
<path d="M14.375 11.5C14.375 12.2625 14.0721 12.9938 13.5329 13.5329C12.9938 14.0721 12.2625 14.375 11.5 14.375C10.7375 14.375 10.0062 14.0721 9.46707 13.5329C8.9279 12.9938 8.625 12.2625 8.625 11.5C8.625 10.7375 8.9279 10.0062 9.46707 9.46707C10.0062 8.9279 10.7375 8.625 11.5 8.625C12.2625 8.625 12.9938 8.9279 13.5329 9.46707C14.0721 10.0062 14.375 10.7375 14.375 11.5Z" stroke="black" stroke-width="1.4375"/>
</svg>
