<svg width="30" height="30" viewBox="0 0 30 30" fill="none" xmlns="http://www.w3.org/2000/svg">
<path d="M18.703 14.8969C18.8718 14.9719 19.0499 15 19.2186 15C19.603 15 19.978 14.8406 20.2499 14.55L22.4436 12.1875H25.3124C26.8593 12.1875 28.1249 10.9219 28.1249 9.375V4.6875C28.1249 3.14062 26.8593 1.875 25.3124 1.875H17.8124C16.2655 1.875 14.9999 3.14062 14.9999 4.6875V9.36562C14.9999 10.9125 16.2655 12.1781 17.8124 12.1781V13.5844C17.8124 14.175 18.1593 14.6813 18.703 14.8969ZM16.8749 4.6875C16.8749 4.17188 17.2968 3.75 17.8124 3.75H25.3124C25.828 3.75 26.2499 4.17188 26.2499 4.6875V9.375C26.2499 9.89062 25.828 10.3125 25.3124 10.3125H21.6186L19.6874 12.3938V10.3125H17.8124C17.2968 10.3125 16.8749 9.89062 16.8749 9.375V4.6875ZM9.84363 16.875C7.25613 16.875 5.15613 14.775 5.15613 12.1875C5.15613 9.6 7.25613 7.5 9.84363 7.5C12.4311 7.5 14.5311 9.6 14.5311 12.1875C14.5311 14.775 12.4311 16.875 9.84363 16.875ZM9.84363 9.375C8.29675 9.375 7.03113 10.6406 7.03113 12.1875C7.03113 13.7344 8.29675 15 9.84363 15C11.3905 15 12.6561 13.7344 12.6561 12.1875C12.6561 10.6406 11.3905 9.375 9.84363 9.375ZM9.84363 28.1156C7.12488 28.1156 5.04363 27.3656 3.63738 25.8956C1.82706 24.0066 1.86925 21.5972 1.87394 21.36V21.3441C1.87488 19.9312 3.05613 18.75 4.51863 18.75H15.1686C16.6218 18.75 17.8124 19.9303 17.8124 21.3909V21.4003C17.8161 21.5709 17.8686 23.9972 16.0499 25.905C14.6436 27.3759 12.5624 28.125 9.84363 28.125V28.1156ZM4.51863 20.6231C4.09675 20.6231 3.74988 20.97 3.74988 21.3919V21.3975C3.74706 21.5316 3.72363 23.2959 5.00613 24.6225C6.03738 25.6997 7.66863 26.2425 9.84363 26.2425C12.0186 26.2425 13.6405 25.6987 14.6811 24.6225C15.9936 23.2641 15.9468 21.4472 15.9374 21.4284C15.9374 20.9691 15.5905 20.6231 15.1686 20.6231H4.51863Z" fill="#FCCCC8"/>
</svg>
