<svg width="30" height="30" viewBox="0 0 30 30" fill="none" xmlns="http://www.w3.org/2000/svg">
<path d="M16.1001 8.77154L22.0676 10.3603M14.8226 13.5165L17.8051 14.3115M14.9714 22.4578L16.1639 22.7765C19.5389 23.6765 21.2264 24.1253 22.5564 23.3615C23.8851 22.599 24.3376 20.9203 25.2414 17.5653L26.5201 12.819C27.4251 9.46279 27.8764 7.78529 27.1089 6.46279C26.3414 5.14029 24.6551 4.69154 21.2789 3.79279L20.0864 3.47404C16.7114 2.57404 15.0239 2.12529 13.6951 2.88904C12.3651 3.65154 11.9126 5.33029 11.0076 8.68529L9.73014 13.4315C8.82514 16.7878 8.37264 18.4653 9.14139 19.7878C9.90889 21.109 11.5964 21.559 14.9714 22.4578Z" stroke="white" stroke-width="1.875" stroke-linecap="round" stroke-linejoin="round"/>
<path d="M15 26.1827L13.81 26.5077C10.4425 27.4239 8.76003 27.8827 7.43253 27.1039C6.10753 26.3264 5.65503 24.6164 4.75378 21.1939L3.47753 16.3539C2.57503 12.9327 2.12378 11.2214 2.89003 9.87395C3.55253 8.7077 5.00003 8.7502 6.87503 8.7502" stroke="white" stroke-width="1.875" stroke-linecap="round" stroke-linejoin="round"/>
</svg>
