<svg width="24" height="24" viewBox="0 0 24 24" fill="none" xmlns="http://www.w3.org/2000/svg">
<g opacity="0.7">
<path fill-rule="evenodd" clip-rule="evenodd" d="M12 21.1889L12.7212 20.3763C13.5395 19.4399 14.2758 18.5489 14.9303 17.7031L15.4709 16.99C17.7284 13.9492 18.8572 11.5367 18.8572 9.75228C18.8572 5.94428 15.7875 2.85742 12 2.85742C8.2126 2.85742 5.14288 5.94428 5.14288 9.75228C5.14288 11.5367 6.27165 13.9496 8.52917 16.9911L9.06974 17.7043C10.0041 18.9012 10.9815 20.0627 12 21.1889Z" stroke="#F76D61" stroke-width="1.14286" stroke-linecap="round" stroke-linejoin="round"/>
<path d="M12 12.5717C13.578 12.5717 14.8572 11.2925 14.8572 9.71456C14.8572 8.13661 13.578 6.85742 12 6.85742C10.4221 6.85742 9.14288 8.13661 9.14288 9.71456C9.14288 11.2925 10.4221 12.5717 12 12.5717Z" stroke="#F76D61" stroke-width="1.14286" stroke-linecap="round" stroke-linejoin="round"/>
</g>
</svg>
