<svg width="300" height="300" viewBox="0 0 300 300" fill="none" xmlns="http://www.w3.org/2000/svg">
<g clip-path="url(#clip0_2186_652)">
<path d="M266.667 241.667H33.3333C31.1232 241.667 29.0036 240.789 27.4408 239.226C25.878 237.663 25 235.543 25 233.333C25 231.123 25.878 229.004 27.4408 227.441C29.0036 225.878 31.1232 225 33.3333 225H266.667C268.877 225 270.996 225.878 272.559 227.441C274.122 229.004 275 231.123 275 233.333C275 235.543 274.122 237.663 272.559 239.226C270.996 240.789 268.877 241.667 266.667 241.667Z" fill="black"/>
<path d="M266.667 158.334H33.3333C31.1232 158.334 29.0036 157.456 27.4408 155.893C25.878 154.33 25 152.21 25 150C25 147.79 25.878 145.671 27.4408 144.108C29.0036 142.545 31.1232 141.667 33.3333 141.667H266.667C268.877 141.667 270.996 142.545 272.559 144.108C274.122 145.671 275 147.79 275 150C275 152.21 274.122 154.33 272.559 155.893C270.996 157.456 268.877 158.334 266.667 158.334Z" fill="black"/>
<path d="M266.667 74.9997H33.3333C31.1232 74.9997 29.0036 74.1217 27.4408 72.5589C25.878 70.9961 25 68.8765 25 66.6663C25 64.4562 25.878 62.3366 27.4408 60.7738C29.0036 59.211 31.1232 58.333 33.3333 58.333H266.667C268.877 58.333 270.996 59.211 272.559 60.7738C274.122 62.3366 275 64.4562 275 66.6663C275 68.8765 274.122 70.9961 272.559 72.5589C270.996 74.1217 268.877 74.9997 266.667 74.9997Z" fill="black"/>
</g>
<defs>
<clipPath id="clip0_2186_652">
<rect width="300" height="300" fill="white"/>
</clipPath>
</defs>
</svg>
