<svg width="24" height="24" viewBox="0 0 24 24" fill="none" xmlns="http://www.w3.org/2000/svg">
<g opacity="0.7">
<path d="M7.104 3C6.40726 3.00001 5.72971 3.22832 5.17505 3.64997C4.62038 4.07163 4.21915 4.66341 4.03275 5.33475L3.327 7.875H4.8825L5.47725 5.736C5.57598 5.38046 5.78852 5.06708 6.08232 4.84384C6.37613 4.62061 6.73501 4.49983 7.104 4.5H16.8975C17.2664 4.5 17.6251 4.62085 17.9187 4.84407C18.2124 5.06729 18.4248 5.38058 18.5235 5.736L20.9377 14.4277C21.0051 14.6706 21.0155 14.9257 20.968 15.1731C20.9205 15.4206 20.8165 15.6537 20.664 15.8543C20.5115 16.055 20.3147 16.2176 20.089 16.3296C19.8633 16.4416 19.6147 16.4999 19.3627 16.5H10.875V18H19.3627C21.4357 18 22.938 16.0238 22.383 14.0258L19.9695 5.33475C19.7831 4.66341 19.3819 4.07163 18.8272 3.64997C18.2725 3.22832 17.595 3.00001 16.8983 3H7.104ZM10.875 19.5H18C18.1989 19.5 18.3897 19.579 18.5303 19.7197C18.671 19.8603 18.75 20.0511 18.75 20.25C18.75 20.4489 18.671 20.6397 18.5303 20.7803C18.3897 20.921 18.1989 21 18 21H10.8525C10.8675 20.8775 10.875 20.7525 10.875 20.625V19.5ZM3.375 10.5C3.27554 10.5 3.18016 10.5395 3.10984 10.6098C3.03951 10.6802 3 10.7755 3 10.875V20.625C3 20.7245 3.03951 20.8198 3.10984 20.8902C3.18016 20.9605 3.27554 21 3.375 21H7.875C7.97446 21 8.06984 20.9605 8.14017 20.8902C8.21049 20.8198 8.25 20.7245 8.25 20.625V10.875C8.25 10.7755 8.21049 10.6802 8.14017 10.6098C8.06984 10.5395 7.97446 10.5 7.875 10.5H3.375ZM1.5 10.875C1.5 10.3777 1.69754 9.90081 2.04917 9.54917C2.40081 9.19754 2.87772 9 3.375 9H7.875C8.37228 9 8.84919 9.19754 9.20083 9.54917C9.55246 9.90081 9.75 10.3777 9.75 10.875V20.625C9.75 21.1223 9.55246 21.5992 9.20083 21.9508C8.84919 22.3025 8.37228 22.5 7.875 22.5H3.375C2.87772 22.5 2.40081 22.3025 2.04917 21.9508C1.69754 21.5992 1.5 21.1223 1.5 20.625V10.875ZM5.625 15C6.02282 15 6.40436 14.842 6.68566 14.5607C6.96696 14.2794 7.125 13.8978 7.125 13.5C7.125 13.1022 6.96696 12.7206 6.68566 12.4393C6.40436 12.158 6.02282 12 5.625 12C5.22718 12 4.84564 12.158 4.56434 12.4393C4.28304 12.7206 4.125 13.1022 4.125 13.5C4.125 13.8978 4.28304 14.2794 4.56434 14.5607C4.84564 14.842 5.22718 15 5.625 15Z" fill="#F76D61"/>
</g>
</svg>
