<svg width="40" height="40" viewBox="0 0 40 40" fill="none" xmlns="http://www.w3.org/2000/svg">
<path d="M35.0003 35L27.762 27.7617M27.762 27.7617C29.0002 26.5235 29.9823 25.0536 30.6524 23.4359C31.3225 21.8182 31.6674 20.0843 31.6674 18.3333C31.6674 16.5823 31.3225 14.8485 30.6524 13.2308C29.9823 11.613 29.0002 10.1432 27.762 8.90501C26.5239 7.66686 25.054 6.68471 23.4363 6.01463C21.8185 5.34455 20.0847 4.99966 18.3337 4.99966C16.5827 4.99966 14.8488 5.34455 13.2311 6.01463C11.6134 6.68471 10.1435 7.66686 8.90534 8.90501C6.40479 11.4056 5 14.797 5 18.3333C5 21.8697 6.40479 25.2611 8.90534 27.7617C11.4059 30.2622 14.7974 31.667 18.3337 31.667C21.87 31.667 25.2615 30.2622 27.762 27.7617Z" stroke="#F76D61" stroke-width="2.5" stroke-linecap="round" stroke-linejoin="round"/>
</svg>
