<svg width="24" height="24" viewBox="0 0 24 24" fill="none" xmlns="http://www.w3.org/2000/svg">
<path d="M15 7.674L16.409 6.187C17.159 5.396 17.534 5 18 5C18.466 5 18.841 5.396 19.591 6.187L21 7.674M18 5.087V9.462C18 11.696 18 12.812 17.553 13.797C17.106 14.782 16.266 15.517 14.585 16.988L14 17.5M3 6.5C3 5.275 3 4.662 3.238 4.194C3.448 3.783 3.783 3.448 4.194 3.238C4.662 3 5.274 3 6.5 3C7.726 3 8.338 3 8.806 3.238C9.217 3.448 9.552 3.783 9.762 4.194C10 4.662 10 5.274 10 6.5C10 7.726 10 8.338 9.762 8.806C9.552 9.217 9.217 9.552 8.806 9.762C8.338 10 7.726 10 6.5 10C5.274 10 4.662 10 4.194 9.762C3.78289 9.55158 3.44842 9.21711 3.238 8.806C3 8.338 3 7.726 3 6.5ZM3 17.5C3 16.275 3 15.662 3.238 15.194C3.448 14.783 3.783 14.448 4.194 14.238C4.662 14 5.274 14 6.5 14C7.726 14 8.338 14 8.806 14.238C9.217 14.448 9.552 14.783 9.762 15.194C10 15.662 10 16.274 10 17.5C10 18.726 10 19.338 9.762 19.806C9.552 20.217 9.217 20.552 8.806 20.762C8.338 21 7.726 21 6.5 21C5.274 21 4.662 21 4.194 20.762C3.78289 20.5516 3.44842 20.2171 3.238 19.806C3 19.338 3 18.726 3 17.5Z" stroke="#6D6D6D" stroke-width="1.875" stroke-linecap="round" stroke-linejoin="round"/>
</svg>
