<svg width="24" height="24" viewBox="0 0 24 24" fill="none" xmlns="http://www.w3.org/2000/svg">
<path d="M5.60156 12C5.60156 11.745 5.70285 11.5005 5.88313 11.3202C6.06342 11.1399 6.30794 11.0387 6.56291 11.0387H11.0402V6.56135C11.0402 6.30639 11.1415 6.06187 11.3218 5.88158C11.5021 5.70129 11.7466 5.60001 12.0016 5.60001C12.2565 5.60001 12.501 5.70129 12.6813 5.88158C12.8616 6.06187 12.9629 6.30639 12.9629 6.56135V11.0387H17.4402C17.6952 11.0387 17.9397 11.1399 18.12 11.3202C18.3003 11.5005 18.4016 11.745 18.4016 12C18.4016 12.255 18.3003 12.4995 18.12 12.6798C17.9397 12.8601 17.6952 12.9614 17.4402 12.9614H12.9629V17.4387C12.9629 17.6936 12.8616 17.9381 12.6813 18.1184C12.501 18.2987 12.2565 18.4 12.0016 18.4C11.7466 18.4 11.5021 18.2987 11.3218 18.1184C11.1415 17.9381 11.0402 17.6936 11.0402 17.4387V12.9614H6.56291C6.30794 12.9614 6.06342 12.8601 5.88313 12.6798C5.70285 12.4995 5.60156 12.255 5.60156 12Z" fill="#F76D61"/>
<path fill-rule="evenodd" clip-rule="evenodd" d="M6.25471 1.91701C10.0737 1.49434 13.9279 1.49434 17.7469 1.91701C19.9886 2.1669 21.7985 3.92957 22.0611 6.17976C22.5151 10.0469 22.5151 13.9532 22.0611 17.8203C21.7973 20.0704 19.9874 21.8319 17.7469 22.083C13.9279 22.5057 10.0737 22.5057 6.25471 22.083C4.01296 21.8319 2.20311 20.0704 1.94053 17.8203C1.48857 13.9532 1.48857 10.0468 1.94053 6.17976C2.20311 3.92957 4.01418 2.1669 6.25471 1.91701ZM17.5432 3.74215C13.8596 3.33453 10.142 3.33453 6.45839 3.74215C5.77647 3.81768 5.13997 4.1205 4.65171 4.6017C4.16346 5.08291 3.85196 5.71439 3.76755 6.39412C3.33114 10.1191 3.33114 13.8821 3.76755 17.6071C3.85222 18.2866 4.16382 18.9178 4.65206 19.3988C5.14029 19.8797 5.77665 20.1824 6.45839 20.2579C10.1112 20.6645 13.8904 20.6645 17.5432 20.2579C18.2247 20.1821 18.8608 19.8794 19.3488 19.3984C19.8368 18.9175 20.1482 18.2864 20.2328 17.6071C20.6692 13.8821 20.6692 10.1191 20.2328 6.39412C20.148 5.71501 19.8364 5.08424 19.3484 4.60355C18.8605 4.12286 18.2245 3.82027 17.5432 3.7446" fill="#F76D61"/>
</svg>
