<svg width="30" height="30" viewBox="0 0 30 30" fill="none" xmlns="http://www.w3.org/2000/svg">
<path d="M8.30769 4H18.6923C19.3043 4 19.8913 4.23178 20.3241 4.64437C20.7569 5.05694 21 5.61652 21 6.2V8.4H18.6923V6.2H8.30769V23.8H18.6923V21.6H21V23.8C21 24.3835 20.7569 24.9431 20.3241 25.3556C19.8913 25.7682 19.3043 26 18.6923 26H8.30769C7.69565 26 7.10868 25.7682 6.67591 25.3556C6.24313 24.9431 6 24.3835 6 23.8V6.2C6 5.61652 6.24313 5.05694 6.67591 4.64437C7.10868 4.23178 7.69565 4 8.30769 4Z" fill="#FCCCC8"/>
<path d="M19.8778 18.449L21.4444 20L27 14.5L21.4444 9L19.8778 10.551L22.7444 13.4H12V15.6H22.7444L19.8778 18.449Z" fill="#FCCCC8"/>
</svg>
