<?xml version="1.0" encoding="utf-8"?>
<!-- Generator: Adobe Illustrator 16.0.0, SVG Export Plug-In . SVG Version: 6.00 Build 0)  -->
<!DOCTYPE svg PUBLIC "-//W3C//DTD SVG 1.1//EN" "http://www.w3.org/Graphics/SVG/1.1/DTD/svg11.dtd">
<svg version="1.1" id="Layer_1" xmlns="http://www.w3.org/2000/svg" xmlns:xlink="http://www.w3.org/1999/xlink" x="0px" y="0px"
	 width="379.729px" height="100px" viewBox="0 0 379.729 100" enable-background="new 0 0 379.729 100" xml:space="preserve">
<g>
	<g>
		<path fill="#FF9700" d="M104.91,43.925l-1.711-2.23l-13.068-17.03l-1.482-1.933L71.761,0.72h-9.85l15.238,19.628H63.005
			L47.966,0.72h-9.639v0.327l18.235,23.617l19.584,25.362L55.054,77.285L38.327,98.899v0.381h9.311l15.207-19.768h14.671
			L62.411,99.228v0.053h9.023l16.967-21.995l0.266-0.345l14.532-18.839l1.711-2.219L109.446,50l0.063-0.081L104.91,43.925z
			 M68.55,27.587h14.216l17.453,22.399L83.065,72.274H68.419L85.64,50l0.074-0.095L68.55,27.587z"/>
		<path fill="#E28307" d="M100.247,50l0.001-0.032L83.094,72.274H68.448L85.681,50h-9.523l0.005,0.028L55.06,77.285L38.327,98.899
			v0.381h9.339l15.207-19.768h14.671L62.411,99.228v0.053h9.053L88.43,77.285l0.266-0.345l14.503-18.803l1.738-2.255L109.476,50
			H100.247z"/>
		<polygon fill="#FEC107" points="76.147,50.027 38.074,99.227 0,50.027 38.074,0.719 		"/>
	</g>
	<g>
		<g>
			<path fill="#2A0A17" d="M130.812,69.544V29.812h4.295v16.537h0.214c0.68-1.574,1.638-2.827,2.873-3.758
				c1.235-0.931,2.89-1.396,4.966-1.396c2.863,0,5.127,0.922,6.792,2.766c1.665,1.844,2.497,4.448,2.497,7.813v17.771h-4.295V52.523
				c0-2.47-0.529-4.33-1.584-5.584c-1.056-1.252-2.623-1.879-4.698-1.879c-1.146,0-2.238,0.188-3.276,0.563
				c-1.039,0.376-1.879,0.958-2.523,1.745c-0.644,0.788-0.966,1.771-0.966,2.953v19.222H130.812z"/>
			<path fill="#2A0A17" d="M171.779,70.188c-2.47,0-4.644-0.601-6.523-1.799s-3.348-2.881-4.403-5.047
				c-1.057-2.166-1.584-4.715-1.584-7.651c0-2.935,0.527-5.484,1.584-7.651c1.055-2.165,2.523-3.847,4.403-5.047
				c1.879-1.198,4.054-1.799,6.523-1.799s4.645,0.601,6.524,1.799c1.879,1.2,3.346,2.882,4.403,5.047
				c1.055,2.167,1.584,4.717,1.584,7.651c0,2.937-0.529,5.485-1.584,7.651c-1.057,2.166-2.523,3.849-4.403,5.047
				S174.249,70.188,171.779,70.188z M171.779,66.377c2.327,0,4.223-0.717,5.691-2.147c1.468-1.433,2.202-3.615,2.202-6.552v-3.973
				c0-2.935-0.734-5.118-2.202-6.551c-1.468-1.431-3.365-2.147-5.691-2.147c-2.292,0-4.179,0.717-5.664,2.147
				c-1.486,1.433-2.229,3.616-2.229,6.551v3.973c0,2.937,0.742,5.119,2.229,6.552C167.6,65.66,169.488,66.377,171.779,66.377z"/>
			<path fill="#2A0A17" d="M199.7,70.188c-2.542,0-4.689-0.492-6.443-1.477c-1.754-0.983-3.257-2.3-4.51-3.945l3.061-2.471
				c1.074,1.325,2.272,2.362,3.598,3.114c1.324,0.751,2.862,1.127,4.617,1.127c1.825,0,3.248-0.393,4.269-1.181
				c1.021-0.787,1.53-1.896,1.53-3.329c0-1.074-0.349-2.005-1.047-2.792s-1.96-1.306-3.786-1.558l-2.201-0.321
				c-1.684-0.251-3.203-0.671-4.563-1.262c-1.361-0.592-2.426-1.432-3.195-2.524c-0.77-1.091-1.154-2.497-1.154-4.214
				c0-2.756,0.94-4.807,2.819-6.148c1.879-1.343,4.232-2.014,7.061-2.014c1.504,0,2.837,0.18,4,0.537
				c1.163,0.358,2.21,0.868,3.142,1.53c0.93,0.663,1.771,1.459,2.522,2.389l-2.846,2.578c-0.608-0.859-1.503-1.638-2.685-2.336
				c-1.181-0.698-2.667-1.047-4.456-1.047c-1.754,0-3.096,0.386-4.026,1.154c-0.932,0.771-1.396,1.817-1.396,3.141
				c0,1.325,0.456,2.301,1.369,2.927c0.912,0.626,2.229,1.083,3.946,1.369l2.148,0.322c3.078,0.466,5.261,1.351,6.55,2.657
				c1.289,1.309,1.933,3.017,1.933,5.129c0,1.789-0.412,3.328-1.234,4.616c-0.823,1.29-2.006,2.283-3.543,2.979
				C203.636,69.839,201.811,70.188,199.7,70.188z"/>
			<path fill="#2A0A17" d="M228.641,69.544h-5.369c-1.468,0-2.597-0.429-3.383-1.288c-0.788-0.859-1.182-1.95-1.182-3.275V45.598
				h-4.563v-3.759h2.577c0.931,0,1.564-0.188,1.906-0.564c0.34-0.375,0.511-1.027,0.511-1.959v-5.154h3.865v7.678h6.067v3.759
				h-6.067v20.188h5.638V69.544z"/>
			<path fill="#2A0A17" d="M246.199,70.188c-2.507,0-4.689-0.601-6.551-1.799c-1.862-1.198-3.312-2.881-4.349-5.047
				c-1.039-2.166-1.558-4.715-1.558-7.651c0-2.935,0.519-5.484,1.558-7.651c1.037-2.165,2.486-3.847,4.349-5.047
				c1.861-1.198,4.044-1.799,6.551-1.799c2.469,0,4.6,0.583,6.389,1.745c1.79,1.164,3.168,2.766,4.136,4.806
				c0.966,2.041,1.449,4.368,1.449,6.979v2.041h-19.921v1.288c0,2.399,0.726,4.395,2.175,5.987c1.45,1.593,3.464,2.39,6.04,2.39
				c1.754,0,3.284-0.412,4.591-1.235c1.307-0.822,2.317-2.005,3.034-3.544l3.061,2.201c-0.895,1.862-2.291,3.383-4.188,4.564
				C251.066,69.599,248.81,70.188,246.199,70.188z M246.199,44.792c-1.539,0-2.908,0.358-4.108,1.074
				c-1.199,0.716-2.139,1.709-2.818,2.979c-0.68,1.271-1.021,2.712-1.021,4.322v0.376h15.303v-0.59c0-1.646-0.304-3.079-0.912-4.296
				c-0.609-1.217-1.468-2.165-2.578-2.846C248.955,45.133,247.667,44.792,246.199,44.792z"/>
			<path fill="#2A0A17" d="M273.635,69.544h-3.812c-1.468,0-2.597-0.42-3.383-1.261c-0.788-0.841-1.182-1.906-1.182-3.195V29.812
				h4.296v35.974h4.08V69.544z"/>
			<path fill="#2A0A17" d="M303.756,69.544V52.577h-18.953v16.967h-4.511V32.066h4.511v16.538h18.953V32.066h4.51v37.478H303.756z"
				/>
			<path fill="#2A0A17" d="M319.972,35.342c-0.896,0-1.558-0.223-1.988-0.671c-0.429-0.447-0.644-1.028-0.644-1.745v-0.698
				c0-0.716,0.215-1.297,0.644-1.745c0.431-0.446,1.092-0.671,1.988-0.671c0.929,0,1.601,0.225,2.014,0.671
				c0.41,0.448,0.616,1.029,0.616,1.745v0.698c0,0.717-0.206,1.298-0.616,1.745C321.573,35.119,320.901,35.342,319.972,35.342z
				 M317.824,69.544V41.839h4.296v27.705H317.824z"/>
			<path fill="#2A0A17" d="M342.362,69.544h-4.993l-9.719-27.705h4.296l4.832,13.745l3.006,9.45h0.27l3.007-9.45l4.938-13.745h4.135
				L342.362,69.544z"/>
			<path fill="#2A0A17" d="M367.651,70.188c-2.506,0-4.689-0.601-6.55-1.799c-1.862-1.198-3.312-2.881-4.351-5.047
				s-1.556-4.715-1.556-7.651c0-2.935,0.517-5.484,1.556-7.651c1.039-2.165,2.488-3.847,4.351-5.047
				c1.86-1.198,4.044-1.799,6.55-1.799c2.47,0,4.599,0.583,6.39,1.745c1.789,1.164,3.167,2.766,4.134,4.806
				c0.967,2.041,1.45,4.368,1.45,6.979v2.041h-19.92v1.288c0,2.399,0.725,4.395,2.174,5.987c1.451,1.593,3.464,2.39,6.041,2.39
				c1.754,0,3.282-0.412,4.591-1.235c1.307-0.822,2.316-2.005,3.033-3.544l3.061,2.201c-0.895,1.862-2.291,3.383-4.188,4.564
				C372.519,69.599,370.263,70.188,367.651,70.188z M367.651,44.792c-1.54,0-2.909,0.358-4.107,1.074
				c-1.2,0.716-2.14,1.709-2.819,2.979c-0.681,1.271-1.02,2.712-1.02,4.322v0.376h15.302v-0.59c0-1.646-0.305-3.079-0.912-4.296
				c-0.609-1.217-1.469-2.165-2.577-2.846C370.407,45.133,369.119,44.792,367.651,44.792z"/>
		</g>
	</g>
</g>
</svg>
